<mxfile host="app.diagrams.net" modified="2023-05-10T14:48:54.869Z" agent="Mozilla/5.0 (Windows NT 10.0; Win64; x64) AppleWebKit/537.36 (KHTML, like Gecko) Chrome/112.0.0.0 Safari/537.36 Edg/112.0.1722.58" etag="gadWY2IUxN3--3eHWA_e" version="21.2.9" type="github">
  <diagram name="第 1 页" id="eL2jQSBWby4WY-ZgAVte">
    <mxGraphModel dx="754" dy="819" grid="1" gridSize="10" guides="1" tooltips="1" connect="1" arrows="1" fold="1" page="1" pageScale="1" pageWidth="827" pageHeight="1169" math="0" shadow="0">
      <root>
        <mxCell id="0" />
        <mxCell id="1" parent="0" />
        <mxCell id="7fmScRaT4JAVB9zxNmK1-6" value="" style="edgeStyle=orthogonalEdgeStyle;rounded=0;orthogonalLoop=1;jettySize=auto;html=1;" edge="1" parent="1" source="7fmScRaT4JAVB9zxNmK1-4" target="7fmScRaT4JAVB9zxNmK1-5">
          <mxGeometry relative="1" as="geometry" />
        </mxCell>
        <mxCell id="7fmScRaT4JAVB9zxNmK1-4" value="&lt;font style=&quot;font-size: 18px;&quot;&gt;__getitem__(self,index)&lt;/font&gt;" style="rounded=1;whiteSpace=wrap;html=1;" vertex="1" parent="1">
          <mxGeometry x="340.01" y="150" width="236" height="50" as="geometry" />
        </mxCell>
        <mxCell id="7fmScRaT4JAVB9zxNmK1-8" value="" style="edgeStyle=orthogonalEdgeStyle;rounded=0;orthogonalLoop=1;jettySize=auto;html=1;" edge="1" parent="1" source="7fmScRaT4JAVB9zxNmK1-5" target="7fmScRaT4JAVB9zxNmK1-7">
          <mxGeometry relative="1" as="geometry" />
        </mxCell>
        <mxCell id="7fmScRaT4JAVB9zxNmK1-5" value="&lt;font style=&quot;font-size: 18px;&quot;&gt;img_key=b&#39;image-%09d&#39;%index&lt;br&gt;&lt;/font&gt;" style="rounded=0;whiteSpace=wrap;html=1;" vertex="1" parent="1">
          <mxGeometry x="313.75" y="230" width="288.5" height="50" as="geometry" />
        </mxCell>
        <mxCell id="7fmScRaT4JAVB9zxNmK1-10" value="" style="edgeStyle=orthogonalEdgeStyle;rounded=0;orthogonalLoop=1;jettySize=auto;html=1;" edge="1" parent="1" source="7fmScRaT4JAVB9zxNmK1-7" target="7fmScRaT4JAVB9zxNmK1-9">
          <mxGeometry relative="1" as="geometry" />
        </mxCell>
        <mxCell id="7fmScRaT4JAVB9zxNmK1-7" value="&lt;font style=&quot;font-size: 18px;&quot;&gt;img_buf=self.txn.get(img_key)&lt;br&gt;&lt;/font&gt;" style="rounded=0;whiteSpace=wrap;html=1;" vertex="1" parent="1">
          <mxGeometry x="313.75" y="310" width="288.5" height="50" as="geometry" />
        </mxCell>
        <mxCell id="7fmScRaT4JAVB9zxNmK1-12" value="" style="edgeStyle=orthogonalEdgeStyle;rounded=0;orthogonalLoop=1;jettySize=auto;html=1;" edge="1" parent="1" source="7fmScRaT4JAVB9zxNmK1-9" target="7fmScRaT4JAVB9zxNmK1-11">
          <mxGeometry relative="1" as="geometry" />
        </mxCell>
        <mxCell id="7fmScRaT4JAVB9zxNmK1-9" value="&lt;font style=&quot;font-size: 18px;&quot;&gt;把img_buf转为&#39;RGB&#39;&lt;br&gt;&lt;/font&gt;" style="rounded=0;whiteSpace=wrap;html=1;" vertex="1" parent="1">
          <mxGeometry x="313.75" y="390" width="288.5" height="50" as="geometry" />
        </mxCell>
        <mxCell id="7fmScRaT4JAVB9zxNmK1-14" value="" style="edgeStyle=orthogonalEdgeStyle;rounded=0;orthogonalLoop=1;jettySize=auto;html=1;" edge="1" parent="1" source="7fmScRaT4JAVB9zxNmK1-11" target="7fmScRaT4JAVB9zxNmK1-13">
          <mxGeometry relative="1" as="geometry" />
        </mxCell>
        <mxCell id="7fmScRaT4JAVB9zxNmK1-11" value="&lt;font style=&quot;font-size: 18px;&quot;&gt;label_key=b&#39;label-%09d&#39;%index&lt;br&gt;&lt;/font&gt;" style="rounded=0;whiteSpace=wrap;html=1;" vertex="1" parent="1">
          <mxGeometry x="313.75" y="470" width="288.5" height="50" as="geometry" />
        </mxCell>
        <mxCell id="7fmScRaT4JAVB9zxNmK1-16" value="" style="edgeStyle=orthogonalEdgeStyle;rounded=0;orthogonalLoop=1;jettySize=auto;html=1;" edge="1" parent="1" source="7fmScRaT4JAVB9zxNmK1-13" target="7fmScRaT4JAVB9zxNmK1-15">
          <mxGeometry relative="1" as="geometry" />
        </mxCell>
        <mxCell id="7fmScRaT4JAVB9zxNmK1-13" value="&lt;font style=&quot;font-size: 18px;&quot;&gt;word=self.txn.get(ilabel_key).decode()&lt;br&gt;&lt;/font&gt;" style="rounded=0;whiteSpace=wrap;html=1;" vertex="1" parent="1">
          <mxGeometry x="289.88" y="550" width="336.25" height="50" as="geometry" />
        </mxCell>
        <mxCell id="7fmScRaT4JAVB9zxNmK1-18" value="" style="edgeStyle=orthogonalEdgeStyle;rounded=0;orthogonalLoop=1;jettySize=auto;html=1;" edge="1" parent="1" source="7fmScRaT4JAVB9zxNmK1-15" target="7fmScRaT4JAVB9zxNmK1-17">
          <mxGeometry relative="1" as="geometry" />
        </mxCell>
        <mxCell id="7fmScRaT4JAVB9zxNmK1-15" value="&lt;font style=&quot;font-size: 18px;&quot;&gt;对word中的char进行处理，确保char为可识别字符&lt;br&gt;&lt;/font&gt;" style="rounded=0;whiteSpace=wrap;html=1;" vertex="1" parent="1">
          <mxGeometry x="243.98" y="630" width="428.06" height="50" as="geometry" />
        </mxCell>
        <mxCell id="7fmScRaT4JAVB9zxNmK1-22" value="" style="edgeStyle=orthogonalEdgeStyle;rounded=0;orthogonalLoop=1;jettySize=auto;html=1;" edge="1" parent="1" source="7fmScRaT4JAVB9zxNmK1-17" target="7fmScRaT4JAVB9zxNmK1-21">
          <mxGeometry relative="1" as="geometry" />
        </mxCell>
        <mxCell id="7fmScRaT4JAVB9zxNmK1-17" value="&lt;font style=&quot;font-size: 18px;&quot;&gt;为处理好的label添加上&amp;lt;EOS&amp;gt;作为结束符&lt;br&gt;&lt;/font&gt;" style="rounded=0;whiteSpace=wrap;html=1;" vertex="1" parent="1">
          <mxGeometry x="257.94" y="710" width="400.12" height="40" as="geometry" />
        </mxCell>
        <mxCell id="7fmScRaT4JAVB9zxNmK1-21" value="&lt;font style=&quot;font-size: 18px;&quot;&gt;return img,label,label_len&lt;/font&gt;" style="rounded=1;whiteSpace=wrap;html=1;" vertex="1" parent="1">
          <mxGeometry x="321.5" y="780" width="273" height="40" as="geometry" />
        </mxCell>
      </root>
    </mxGraphModel>
  </diagram>
</mxfile>
